<?xml version="1.0" encoding="UTF-8" standalone="no"?>
<!-- Created with Inkscape (http://www.inkscape.org/) -->

<svg
   width="900"
   height="307"
   viewBox="0 0 238.12553 81.227306"
   version="1.1"
   id="svg1"
   xmlns="http://www.w3.org/2000/svg"
   xmlns:svg="http://www.w3.org/2000/svg">
  <defs
     id="defs1">
    <rect
       x="33.792938"
       y="4.7734489"
       width="50.969376"
       height="18.733162"
       id="rect5" />
  </defs>
  <g
     id="layer1">
    <g
       id="g5"
       transform="matrix(3.3320801,0,0,3.4694584,-36.043839,-59.51762)">
      <g
         id="layer1-1"
         transform="matrix(0.48712582,0,0,0.48712582,46.213406,11.824428)">
        <g
           id="g2">
          <path
             style="fill:none;stroke:#000000;stroke-width:1.00157;stroke-dasharray:none;stroke-opacity:1"
             d="m 14.495737,48.087188 c 11.268548,22.720831 45.908618,3.5137 39.060365,-13.337064 -5.095775,-5.078589 -20.571872,-0.120935 -30.380931,4.998065 m -7.285105,4.373424 c -0.616633,0.499119 -1.144051,1.33498 -1.246844,1.905527 -0.20757,0.630044 -0.701466,2.547717 0.904538,2.978797 10.527334,2.590808 32.642,-5.89112 38.465512,-12.419333"
             id="path3" />
        </g>
        <path
           style="fill:none;stroke:#000000;stroke-width:1.00157;stroke-dasharray:none;stroke-opacity:1"
           d="m 19.483125,49.339761 c -2.199573,-2.35244 -4.968783,-4.935333 -4.38879,-10.131725 0.738849,-1.696053 2.460337,-0.278558 3.083489,-1.947689 -0.004,-3.003939 -0.214428,-5.13493 -0.118119,-7.715061 0.273811,-2.308565 4.420101,-2.001769 4.619694,-0.350811 -0.137869,7.455067 0.188794,6.145095 0.363632,9.144911 0.979358,3.537386 5.779313,9.140264 8.171904,9.401059 -3.429478,0.847043 -7.099987,1.802225 -11.73181,1.599316 z"
           id="path4" />
        <g
           id="layer2">
          <path
             style="display:inline;fill:none;stroke:#000000;stroke-width:1.00157;stroke-dasharray:none;stroke-opacity:1"
             d="m 43.797127,43.320378 c 1.527658,-2.416555 1.497542,-4.455707 2.300155,-6.678383 0.277067,-0.755925 1.228672,-1.289243 2.003481,-1.234496 0.830084,0.05865 1.480251,0.742226 1.597859,0.98985 0.431505,0.863245 1.417457,2.191062 0.928271,2.952847"
             id="path5" />
          <path
             style="fill:none;stroke:#000000;stroke-width:1.00157;stroke-dasharray:none;stroke-opacity:1"
             d="m 53.671613,32.955573 c 0.188919,0.432947 1.695442,0.463772 2.33668,0.245853 l 15.879725,-6.831036 0.449591,-0.218985 c 2.085547,-1.087143 0.662708,-4.752183 -2.049534,-3.751747 l -15.276486,6.797398 c -1.355517,0.755262 -2.331521,2.409836 -1.339976,3.758517 z"
             id="path6" />
          <path
             style="fill:#000000;fill-opacity:1;stroke:none;stroke-width:1.00157;stroke-dasharray:none;stroke-opacity:1"
             d="m 55.964615,29.265535 c 1.508959,-0.147833 2.667191,1.320167 1.658312,2.742666 l 2.129902,-0.870159 c -0.798882,-0.736416 -1.339275,-2.454355 -0.755415,-3.217151 z"
             id="path7" />
          <path
             style="fill:#000000;fill-opacity:1;stroke:none;stroke-width:1.00157;stroke-dasharray:none;stroke-opacity:1"
             d="m 54.951149,29.782973 c -0.941186,0.734837 -0.506891,3.502124 2.240063,2.480006 -1.185846,0.888607 -3.274874,1.317928 -2.93716,2.51173 -0.526398,-0.568087 -2.336497,-1.174671 -2.080014,-1.645532 1.145203,-0.239456 1.370385,-2.628873 2.777111,-3.346204 z"
             id="path8" />
          <circle
             style="fill:none;fill-opacity:1;stroke:#000000;stroke-width:1.75748;stroke-dasharray:none;stroke-opacity:1"
             id="path9"
             cx="21.794064"
             cy="20.407591"
             r="2.6810951" />
          <circle
             style="fill:none;fill-opacity:1;stroke:#000000;stroke-width:1.25732;stroke-dasharray:none;stroke-opacity:1"
             id="path9-3"
             cx="28.525179"
             cy="13.766356"
             r="1.9180919" />
          <ellipse
             style="fill:#000000;fill-opacity:1;stroke:#000000;stroke-width:1.03267;stroke-dasharray:none;stroke-opacity:1"
             id="path11"
             cx="33.026489"
             cy="17.934383"
             rx="0.3445608"
             ry="0.40503931" />
          <ellipse
             style="fill:#000000;fill-opacity:1;stroke:#000000;stroke-width:1.03267;stroke-dasharray:none;stroke-opacity:1"
             id="path11-1"
             cx="30.298065"
             cy="22.900877"
             rx="0.3445608"
             ry="0.40503931" />
          <path
             style="fill:none;fill-opacity:1;stroke:#000000;stroke-width:1.25102;stroke-dasharray:none;stroke-opacity:1"
             d="m 30.688657,29.131239 c -1.452327,2.631082 -1.985469,4.474038 -0.514422,9.142844"
             id="path12" />
          <ellipse
             style="fill:#000000;fill-opacity:1;stroke:none;stroke-width:0.482679;stroke-dasharray:none;stroke-opacity:1"
             id="path13"
             cx="30.610598"
             cy="29.260983"
             rx="0.63298833"
             ry="0.61477792" />
          <ellipse
             style="fill:#000000;fill-opacity:1;stroke:none;stroke-width:0.482679;stroke-dasharray:none;stroke-opacity:1"
             id="path13-3"
             cx="30.158783"
             cy="38.21093"
             rx="0.63298833"
             ry="0.61477792" />
          <rect
             style="fill:#000000;fill-opacity:1;stroke:none;stroke-width:1.36595;stroke-dasharray:none;stroke-opacity:1"
             id="rect13"
             width="2.4387054"
             height="2.4387054"
             x="29.96858"
             y="40.810944"
             ry="0.98268288" />
          <rect
             style="fill:#000000;fill-opacity:1;stroke:none;stroke-width:1.36595;stroke-dasharray:none;stroke-opacity:1"
             id="rect13-6"
             width="2.4387054"
             height="2.4387054"
             x="24.409248"
             y="32.478424"
             ry="0.98268288" />
          <rect
             style="fill:#000000;fill-opacity:1;stroke:none;stroke-width:1.36595;stroke-dasharray:none;stroke-opacity:1"
             id="rect13-2"
             width="2.4387054"
             height="2.4387054"
             x="25.31918"
             y="24.008764"
             ry="0.98268288" />
          <rect
             style="fill:#000000;fill-opacity:1;stroke:none;stroke-width:1.36595;stroke-dasharray:none;stroke-opacity:1"
             id="rect13-5"
             width="2.4387054"
             height="2.4387054"
             x="14.872565"
             y="22.94076"
             ry="0.98268288" />
          <path
             style="fill:#ff0000;fill-opacity:1;stroke:#000000;stroke-width:1.25102;stroke-dasharray:none;stroke-opacity:1"
             d="m 20.868072,44.586079 2.171658,2.759922"
             id="path14" />
          <ellipse
             style="fill:#000000;fill-opacity:1;stroke:none;stroke-width:2.07231;stroke-dasharray:none;stroke-opacity:1"
             id="path15"
             cx="20.952318"
             cy="44.704845"
             rx="0.63350153"
             ry="0.61732334" />
          <ellipse
             style="fill:#000000;fill-opacity:1;stroke:none;stroke-width:2.07112;stroke-dasharray:none;stroke-opacity:1"
             id="path15-9"
             cx="22.869257"
             cy="47.170132"
             rx="0.63269973"
             ry="0.61739582" />
        </g>
      </g>
      <path
         style="font-size:12px;line-height:4.8378px;font-family:Onion;-inkscape-font-specification:Onion;text-align:center;letter-spacing:0.41px;word-spacing:0.05px;white-space:pre;stroke:#ff0000;stroke-width:0"
         d="m 48.318354,3.5905764 c 0.204,-0.312 0.18,-0.804 -0.192,-0.984 -0.468,-0.216 -0.888,0.252 -1.068,0.636 -0.24,0.504 -0.396,1.056 -0.528,1.596 -0.252,1.068 -0.348,2.172 -0.684,3.228 -0.072,0.216 -0.156,0.432 -0.252,0.636 -0.108,0.216 -0.216,0.42 -0.336,0.588 -0.252,0.36 -0.528,0.708 -0.924,0.8519996 -0.204,0.072 -0.408,0.072 -0.588,-0.048 -0.216,-0.1559996 -0.348,-0.4079996 -0.468,-0.6359996 -0.144,-0.264 -0.252,-0.528 -0.348,-0.804 -0.096,-0.3 -0.168,-0.612 -0.3,-0.888 -0.072,-0.144 -0.228,-0.096 -0.336,0 -0.048,0.012 -0.108,0.048 -0.12,0.12 -0.18,0.78 -0.54,1.512 -1.068,2.112 -0.372,0.4319996 -1.032,0.9719996 -1.548,0.6839996 0.132,-0.312 0.24,-0.648 0.312,-0.9839996 0.168,-0.804 0.156,-1.62 0.108,-2.424 0.252,-0.432 0.516,-0.864 0.756,-1.296 0.432,-0.78 0.78,-1.608 0.84,-2.508 0.024,-0.372 0.024,-0.876 -0.312,-1.128 -0.396,-0.288 -0.912,0.072 -1.14,0.42 -0.228,0.324 -0.348,0.756 -0.444,1.14 -0.096,0.408 -0.144,0.816 -0.168,1.236 -0.024,0.48 -0.012,0.948 0.012,1.428 -0.24,0.42 -0.492,0.852 -0.684,1.308 -0.204,0.48 -0.372,0.984 -0.432,1.5 -0.048,0.468 0,0.9839996 0.288,1.3559996 0.084,0.108 0.192,0.192 0.3,0.264 -0.336,0.612 -0.792,1.152 -1.344,1.596 -0.216,0.168 -0.06,0.492 0.192,0.312 0.612,-0.48 1.128,-1.08 1.488,-1.764 0.168,0.036 0.336,0.048 0.504,0.024 0.432,-0.072 0.828,-0.348 1.14,-0.648 0.516,-0.504 0.912,-1.1039996 1.176,-1.7639996 0.036,0.288 0.12,0.552 0.204,0.816 0.156,0.4559996 0.372,1.0199996 0.78,1.3079996 0.924,0.648 2.052,-0.276 2.58,-1.0079996 0.564,-0.804 0.864,-1.752 1.032,-2.712 0.18,-1.008 0.216,-2.04 0.432,-3.036 0.432,-0.048 0.876,-0.144 1.14,-0.528 z m -8.4,1.5 c 0.024,-0.408 0.072,-0.804 0.18,-1.188 0.048,-0.204 0.12,-0.408 0.216,-0.6 0.06,-0.108 0.096,-0.192 0.18,-0.24 0.108,0.072 0.156,0.144 0.18,0.264 0.024,0.132 0,0.408 -0.024,0.588 -0.06,0.48 -0.228,0.936 -0.432,1.368 -0.096,0.204 -0.204,0.396 -0.3,0.588 -0.012,-0.264 -0.012,-0.516 0,-0.78 z m -0.792,4.188 c 0.084,-0.396 0.216,-0.768 0.384,-1.128 0.024,-0.06 0.06,-0.108 0.084,-0.168 0.024,0.828 -0.048,1.644 -0.336,2.4239996 0,0 0,-0.012 0,-0.012 -0.216,-0.336 -0.216,-0.7439996 -0.132,-1.1159996 z m 8.34,-6.12 c 0.12,-0.216 0.444,-0.432 0.648,-0.18 0.18,0.228 0.072,0.516 -0.132,0.672 -0.216,0.156 -0.492,0.204 -0.756,0.24 0.06,-0.252 0.12,-0.504 0.24,-0.732 z m 2.917992,5.808 c -0.132,0.456 -0.252,0.936 -0.468,1.3679996 -0.036,0.072 -0.168,0.372 -0.264,0.336 -0.072,-0.012 -0.12,-0.288 -0.132,-0.36 -0.024,-0.132 -0.06,-0.3239996 -0.06,-0.4439996 -0.024,-0.192 -0.036,-0.384 -0.036,-0.576 -0.012,-0.408 0.012,-0.804 0.048,-1.212 0.024,-0.324 0.048,-0.636 0.084,-0.96 0.012,-0.072 -0.036,-0.228 -0.108,-0.264 -0.012,0 -0.012,0 -0.012,0 -0.168,-0.096 -0.324,-0.06 -0.468,0.06 -0.312,0.252 -0.276,0.888 -0.288,1.26 -0.024,0.456 -0.024,0.936 0.012,1.392 0.036,0.408 0.084,0.8759996 0.348,1.1999996 0.132,0.156 0.324,0.276 0.528,0.228 0.168,-0.048 0.312,-0.18 0.396,-0.312 0.36,-0.492 0.528,-1.1399996 0.672,-1.7279996 0.048,-0.192 -0.216,-0.144 -0.252,0.012 z m -1.248,-2.4 c 0.156,0 0.312,-0.204 0.228,-0.348 -0.036,-0.06 -0.072,-0.096 -0.12,-0.156 0,0 0,0 0,0 0.144,-0.036 0.3,-0.24 0.252,-0.396 -0.06,-0.18 -0.24,-0.216 -0.408,-0.168 -0.18,0.06 -0.336,0.228 -0.396,0.408 -0.084,0.312 0.108,0.66 0.444,0.66 z m 4.874008,2.424 c -0.192,0.504 -0.408,1.0559996 -0.756,1.4759996 -0.072,0.084 -0.168,0.192 -0.288,0.216 -0.168,0.036 -0.264,-0.144 -0.348,-0.264 -0.228,-0.3 -0.408,-0.5999996 -0.54,-0.9599996 -0.096,-0.24 -0.156,-0.492 -0.264,-0.708 0.096,-0.252 0.24,-0.48 0.408,-0.684 0.036,-0.036 0.084,-0.084 0.12,-0.12 0,-0.012 0.084,-0.084 0.084,-0.084 0.072,0 0.036,0.228 0.036,0.252 -0.012,0.144 -0.024,0.276 -0.024,0.408 -0.012,0.168 -0.048,0.336 0.048,0.48 0.156,0.228 0.468,0.024 0.564,-0.156 0.096,-0.216 0.06,-0.408 0.048,-0.636 -0.012,-0.18 -0.012,-0.372 -0.084,-0.528 -0.144,-0.336 -0.54,-0.228 -0.768,-0.036 -0.18,0.156 -0.348,0.348 -0.468,0.564 0.012,-0.24 0.024,-0.48 0.036,-0.72 0.024,-0.552 0.048,-1.092 0.072,-1.632 0.012,-0.264 0.024,-0.528 0.036,-0.78 0.012,-0.3 0.084,-0.684 -0.18,-0.888 -0.192,-0.156 -0.468,0 -0.6,0.156 -0.228,0.288 -0.216,0.624 -0.24,0.972 -0.012,0.276 -0.024,0.552 -0.024,0.816 -0.024,0.54 -0.036,1.08 -0.048,1.632 -0.024,0.54 -0.024,1.08 -0.024,1.62 -0.012,0.252 -0.012,0.504 0,0.7679996 0,0.132 0.012,0.276 0.024,0.408 0.012,0.156 0,0.312 0.144,0.396 0.168,0.096 0.324,0.012 0.444,-0.12 0.204,-0.216 0.192,-0.6 0.228,-0.8879996 0,-0.048 0.012,-0.108 0.012,-0.156 0.144,0.3599996 0.348,0.8039996 0.672,1.0199996 0.156,0.096 0.336,0.192 0.528,0.156 0.144,-0.036 0.252,-0.12 0.348,-0.204 0.264,-0.252 0.444,-0.564 0.6,-0.8759996 0.144,-0.288 0.264,-0.6 0.36,-0.9 0.036,-0.12 -0.12,-0.084 -0.156,0 z m 4.478003,-0.024 c -0.132,0.456 -0.252,0.936 -0.468,1.3679996 -0.036,0.072 -0.168,0.372 -0.264,0.336 -0.072,-0.012 -0.12,-0.288 -0.132,-0.36 -0.024,-0.132 -0.06,-0.3239996 -0.06,-0.4439996 -0.024,-0.192 -0.036,-0.384 -0.036,-0.576 -0.012,-0.408 0.012,-0.804 0.048,-1.212 0.024,-0.324 0.048,-0.636 0.084,-0.96 0.012,-0.072 -0.036,-0.228 -0.108,-0.264 -0.012,0 -0.012,0 -0.012,0 -0.168,-0.096 -0.324,-0.06 -0.468,0.06 -0.084,0.06 -0.132,0.144 -0.168,0.24 -0.012,0 -0.024,0 -0.036,0.012 -0.12,-0.168 -0.264,-0.324 -0.444,-0.42 -0.48,-0.288 -1.008,-0.084 -1.404,0.24 -0.792,0.636 -0.972,1.824 -0.804,2.76 0.072,0.4079996 0.252,0.8279996 0.564,1.0919996 0.336,0.276 0.792,0.264 1.116,-0.012 0.504,-0.444 0.72,-1.1639996 0.876,-1.7879996 0,0.18 0.012,0.36 0.024,0.528 0.036,0.408 0.084,0.8759996 0.348,1.1999996 0.132,0.156 0.324,0.276 0.528,0.228 0.168,-0.048 0.312,-0.18 0.396,-0.312 0.36,-0.492 0.528,-1.1399996 0.672,-1.7279996 0.048,-0.192 -0.216,-0.144 -0.252,0.012 z m -3.108,-1.284 c 0,0 -0.012,0.024 -0.024,0.036 0.012,-0.012 0.012,-0.036 0.024,-0.036 z m 1.212,0.816 c -0.12,0.576 -0.252,1.224 -0.576,1.7279996 -0.048,0.084 -0.12,0.156 -0.192,0.204 -0.012,0 -0.036,0.012 -0.072,0.012 -0.012,0 -0.048,0.012 -0.048,0.012 -0.06,-0.012 -0.096,-0.024 -0.144,-0.048 -0.24,-0.108 -0.336,-0.36 -0.396,-0.5999996 -0.096,-0.396 -0.132,-0.672 -0.108,-1.092 0,-0.036 0,-0.084 0.012,-0.132 0,-0.012 0.012,-0.084 0.012,-0.084 0.012,-0.096 0.036,-0.192 0.06,-0.288 0.012,-0.06 0.024,-0.108 0.048,-0.156 0,0 0,0 0,0 0,-0.012 0.012,-0.024 0.012,-0.036 0.048,-0.096 0.096,-0.192 0.144,-0.276 0,0 0,-0.012 0.012,-0.024 0.012,-0.012 0.024,-0.036 0.036,-0.048 0.048,-0.072 0.096,-0.144 0.144,-0.216 0.012,0 0.012,0 0.012,0 0.012,-0.012 0.048,-0.048 0.06,-0.06 0.024,-0.024 0.084,-0.072 0.096,-0.072 0.048,-0.036 0.156,-0.072 0.24,-0.072 0.372,0 0.588,0.276 0.756,0.576 -0.024,0.228 -0.072,0.456 -0.108,0.672 z m 9.218001,-4.128 c 0.072,-0.18 0.12,-0.348 0.072,-0.528 -0.048,-0.144 -0.12,-0.276 -0.216,-0.384 -0.204,-0.24 -0.48,-0.408 -0.792,-0.468 -0.648,-0.12 -1.344,0.096 -1.956,0.336 -1.188,0.48 -2.292,1.272 -3.048,2.316 -0.708,0.972 -1.164,2.412 -0.336,3.48 0.804,1.0319996 2.232,0.684 3.168,0.036 0.6,-0.408 1.068,-0.996 1.356,-1.644 0,0.228 -0.012,0.456 -0.036,0.684 -0.048,0.528 -0.204,1.104 -0.516,1.548 -0.3,0.4319996 -0.72,0.7439996 -1.236,0.8759996 -0.624,0.168 -1.248,-0.036 -1.884,0.012 -0.336,0.012 -0.648,0.108 -0.912,0.312 -0.228,0.18 -0.36,0.468 -0.396,0.744 -0.024,0.156 0.168,0.06 0.216,0 0.108,-0.18 0.384,-0.24 0.588,-0.276 0.288,-0.06 0.576,-0.036 0.864,0 0.336,0.048 0.648,0.108 0.984,0.072 0.324,-0.036 0.636,-0.108 0.936,-0.24 1.224,-0.516 1.86,-1.7399996 2.004,-3.0119996 0.048,-0.384 0.048,-0.756 0.036,-1.14 -0.024,-0.384 -0.048,-0.828 -0.18,-1.2 -0.048,-0.12 -0.144,-0.156 -0.264,-0.108 -0.132,0.048 -0.204,0.18 -0.216,0.312 -0.024,0.228 -0.024,0.468 -0.012,0.708 -0.144,0.696 -0.528,1.344 -1.068,1.812 -0.72,0.624 -1.932,1.056 -2.676,0.228 -0.276,-0.3 -0.456,-0.732 -0.48,-1.152 -0.012,-0.492 0.156,-0.96 0.408,-1.38 0.492,-0.84 1.332,-1.512 2.208,-1.968 0.504,-0.252 1.08,-0.492 1.644,-0.552 0.264,-0.024 0.564,-0.012 0.792,0.156 0.216,0.144 0.276,0.384 0.408,0.564 0.156,0.204 0.444,0.036 0.54,-0.144 z m 3.650003,4.404 c -0.096,0.12 -0.216,0.24 -0.348,0.336 -0.156,0.132 -0.36,0.168 -0.564,0.168 -0.012,0 -0.024,0 -0.036,0 0,-0.192 -0.012,-0.384 -0.036,-0.576 -0.024,-0.288 -0.084,-0.588 -0.156,-0.876 -0.06,-0.216 -0.132,-0.432 -0.288,-0.6 -0.18,-0.216 -0.408,-0.204 -0.588,-0.084 -0.084,0 -0.168,0.024 -0.24,0.06 -0.24,0.144 -0.444,0.408 -0.6,0.66 -0.168,0.252 -0.288,0.528 -0.384,0.816 -0.156,0.54 -0.168,1.116 0.036,1.6319996 0.192,0.48 0.66,0.828 1.164,0.744 0.432,-0.06 0.78,-0.348 0.936,-0.78 0.096,-0.2759996 0.144,-0.5639996 0.156,-0.8639996 0.168,-0.024 0.336,-0.084 0.504,-0.156 0.228,-0.096 0.396,-0.168 0.552,-0.384 0.072,-0.108 -0.036,-0.192 -0.108,-0.096 z m -2.064,-0.624 c 0,0 0.012,-0.012 0.012,-0.012 0,0 0.012,-0.012 0.012,-0.012 0.072,-0.072 0.144,-0.144 0.192,-0.216 0.096,-0.12 0.156,-0.3 0.144,-0.456 0.036,0.024 0.06,0.06 0.084,0.096 0.216,0.312 0.288,0.792 0.324,1.164 0.024,0.168 0.036,0.336 0.036,0.504 -0.192,-0.072 -0.36,-0.192 -0.504,-0.36 -0.156,-0.192 -0.276,-0.42 -0.324,-0.672 0.012,-0.012 0.012,-0.024 0.024,-0.036 z m 0.756,1.788 c -0.048,0.2999996 -0.204,0.7559996 -0.564,0.6479996 -0.324,-0.096 -0.504,-0.444 -0.576,-0.7559996 -0.084,-0.372 -0.048,-0.744 0.048,-1.068 0,-0.012 0.024,-0.072 0.024,-0.084 0.024,-0.036 0.036,-0.084 0.06,-0.132 0,-0.012 0.012,-0.012 0.012,-0.024 0.036,0.084 0.072,0.168 0.108,0.24 0.204,0.36 0.552,0.6 0.948,0.648 -0.012,0.18 -0.024,0.36 -0.06,0.528 z m 4.585997,-4.98 c -0.432,0.012 -0.864,0.132 -1.296,0.192 -0.324,0.06 -0.66,0.084 -0.984,0.108 0.012,-0.192 0.024,-0.384 0.036,-0.576 0.012,-0.228 0.048,-0.456 0.036,-0.672 -0.012,-0.228 -0.144,-0.396 -0.384,-0.36 -0.24,0.036 -0.468,0.252 -0.516,0.48 -0.072,0.372 -0.096,0.756 -0.12,1.14 -0.252,-0.012 -0.516,-0.036 -0.78,-0.06 -0.228,-0.024 -0.468,-0.06 -0.696,-0.108 -0.216,-0.036 -0.42,-0.132 -0.612,0 -0.06,0.048 -0.084,0.12 -0.072,0.192 0,0.012 0,0.024 0.012,0.048 0,0.036 0.036,0.084 0.084,0.096 0.672,0.168 1.356,0.264 2.052,0.288 0,0.024 0,0.048 0,0.084 -0.036,0.744 -0.072,1.512 -0.048,2.256 0.036,0.672 0.06,1.38 0.24,2.0279996 0.048,0.204 0.12,0.432 0.252,0.6 0.156,0.18 0.42,0.3 0.648,0.18 0.336,-0.156 0.504,-0.576 0.636,-0.8999996 0.144,-0.336 0.264,-0.684 0.348,-1.044 0.024,-0.144 -0.144,-0.096 -0.18,0 -0.108,0.276 -0.192,0.552 -0.3,0.828 -0.108,0.2639996 -0.24,0.6359996 -0.492,0.8159996 -0.18,0.144 -0.252,-0.108 -0.276,-0.252 -0.012,-0.048 -0.012,-0.084 -0.024,-0.132 -0.012,-0.072 0,-0.048 -0.012,-0.156 0,0.048 0,-0.024 0,-0.036 -0.012,-0.024 -0.012,-0.06 -0.012,-0.096 0,-0.06 0,-0.12 0,-0.18 -0.036,-1.344 0.06,-2.676 0.156,-4.008 0.324,-0.024 0.66,-0.06 0.996,-0.12 0.444,-0.072 0.912,-0.18 1.308,-0.396 0.072,-0.048 0.156,-0.252 0,-0.24 z m 2.485995,4.008 c -0.132,0.468 -0.252,0.948 -0.468,1.3799996 -0.036,0.084 -0.084,0.156 -0.144,0.228 -0.036,0.06 -0.06,0.096 -0.096,0.06 -0.096,-0.072 -0.12,-0.252 -0.144,-0.36 -0.132,-0.7079996 -0.108,-1.4639996 -0.06,-2.2319996 0.024,-0.336 0.096,-0.696 0.06,-1.044 -0.012,-0.192 -0.228,-0.264 -0.372,-0.228 -0.204,0.06 -0.348,0.264 -0.408,0.468 -0.036,0.144 -0.036,0.336 -0.048,0.48 -0.012,0.192 -0.024,0.384 -0.036,0.576 0,0.204 0,0.408 0,0.612 -0.012,0.024 -0.024,0.036 -0.024,0.048 -0.132,0.468 -0.252,0.948 -0.468,1.3799996 -0.048,0.084 -0.084,0.168 -0.144,0.228 -0.048,0.06 -0.06,0.096 -0.096,0.072 -0.096,-0.084 -0.12,-0.264 -0.144,-0.372 -0.132,-0.7079996 -0.108,-1.4639996 -0.06,-2.2199996 0.024,-0.348 0.096,-0.708 0.06,-1.044 -0.012,-0.204 -0.228,-0.276 -0.384,-0.228 -0.192,0.06 -0.336,0.252 -0.396,0.468 -0.036,0.144 -0.036,0.324 -0.048,0.48 -0.012,0.18 -0.024,0.372 -0.036,0.564 -0.012,0.48 0,0.972 0.048,1.452 0.036,0.3959996 0.12,0.8159996 0.384,1.1039996 0.288,0.324 0.672,0.12 0.888,-0.18 0.204,-0.3 0.348,-0.6599996 0.456,-1.0199996 0.012,0.036 0.012,0.072 0.012,0.108 0.048,0.3959996 0.12,0.8159996 0.384,1.1039996 0.288,0.324 0.672,0.12 0.888,-0.192 0.336,-0.468 0.504,-1.1159996 0.648,-1.6919996 0.048,-0.216 -0.204,-0.156 -0.252,0 z m 2.245991,0.3 c -0.324,0.24 -0.66,0.48 -0.996,0.72 -0.036,-0.888 -0.072,-1.776 0.12,-2.64 0.048,-0.216 -0.048,-0.468 -0.3,-0.468 -0.252,0 -0.48,0.24 -0.54,0.468 -0.264,1.068 -0.216,2.148 -0.156,3.2279996 -0.384,0.252 -0.768,0.528 -1.092,0.852 -0.756,0.744 -1.296,1.92 -0.984,2.988 0.12,0.408 0.384,0.84 0.828,0.96 0.528,0.156 1.02,-0.204 1.332,-0.612 0.708,-0.936 0.864,-2.232 0.852,-3.372 0,-0.384 -0.024,-0.768 -0.036,-1.152 0.36,-0.2759996 0.72,-0.5279996 1.092,-0.7919996 0.132,-0.096 0.036,-0.288 -0.12,-0.18 z m -2.028,4.4159996 c -0.06,0.204 -0.132,0.396 -0.228,0.588 -0.084,0.144 -0.192,0.3 -0.324,0.384 -0.312,0.228 -0.612,-0.096 -0.756,-0.36 -0.456,-0.84 0.024,-1.848 0.564,-2.508 0.276,-0.324 0.588,-0.6 0.924,-0.864 0.036,0.912 0.06,1.872 -0.18,2.76 z m 0.792,-7.1159996 c 0.156,0 0.312,-0.204 0.228,-0.348 -0.036,-0.06 -0.072,-0.096 -0.12,-0.156 0,0 0,0 0,0 0.156,-0.036 0.3,-0.24 0.252,-0.396 -0.06,-0.18 -0.228,-0.216 -0.396,-0.168 -0.192,0.06 -0.348,0.228 -0.396,0.408 -0.096,0.312 0.096,0.66 0.432,0.66 z m 3.973996,2.424 c -0.072,0.324 -0.192,0.648 -0.348,0.948 -0.12,0.2279996 -0.312,0.6239996 -0.576,0.7079996 -0.312,0.108 -0.54,-0.288 -0.648,-0.516 -0.108,-0.2279996 -0.18,-0.4799996 -0.204,-0.7319996 -0.012,-0.12 -0.024,-0.24 -0.012,-0.372 0,-0.108 0.012,-0.216 0.024,-0.288 0.012,-0.048 0.024,-0.096 0.036,-0.156 0.18,0.024 0.36,0 0.528,-0.06 0.204,-0.072 0.468,-0.192 0.588,-0.384 0.228,-0.276 0.252,-0.78 0.06,-1.08 -0.216,-0.3 -0.6,-0.372 -0.912,-0.204 -0.588,0.312 -0.96,1.056 -1.104,1.68 -0.132,0.612 -0.036,1.248 0.288,1.7759996 0.288,0.504 0.9,0.948 1.476,0.564 0.288,-0.192 0.48,-0.516 0.636,-0.816 0.18,-0.3359996 0.312,-0.6959996 0.36,-1.0679996 0.024,-0.156 -0.156,-0.12 -0.192,0 z m -1.536,-0.96 c 0.024,-0.024 0.036,-0.06 0.048,-0.084 0.012,-0.012 0.012,-0.012 0.012,-0.024 0.036,-0.036 0.06,-0.084 0.096,-0.12 0.048,-0.06 0.084,-0.108 0.132,-0.168 0.048,-0.048 0.048,-0.048 0.012,-0.012 0.048,-0.036 0.06,-0.048 0.024,-0.012 0.084,-0.072 0.024,0.012 0.012,-0.012 0.024,0.036 0.048,0.036 0.06,0.096 0.048,0.132 -0.036,0.264 -0.024,0.408 -0.012,0 -0.024,0.012 -0.048,0.012 -0.12,0.048 -0.252,0.06 -0.384,0.048 0.012,-0.036 0.036,-0.084 0.06,-0.132 z"
         id="text5"
         transform="translate(-26.504111,20.895471)"
         aria-label="WikaGotuje" />
    </g>
  </g>
</svg>
